# Blender v2.79 (sub 0) OBJ File: ''
# www.blender.org
mtllib rubik_color.mtl
o Cube
v 0.995000 -1.000000 -1.000000
v 0.995000 -1.000000 1.000000
v -0.995000 -1.000000 1.000000
v -0.995000 -1.000000 -1.000000
v 0.995000 1.000000 -0.999999
v 0.994999 1.000000 1.000001
v -0.995000 1.000000 1.000000
v -0.995000 1.000000 -1.000000
vt 0.000000 0.000000
vt 0.000000 0.000000
vt 0.000000 0.000000
vt 0.000000 0.000000
vt 0.000000 0.000000
vt 0.000000 0.000000
vt 0.000000 0.000000
vt 0.000000 0.000000
vt 0.000000 -1.000000
vt -1.000000 -1.000000
vt -1.000000 0.000000
vn 1.0000 0.0000 0.0000
vn 0.0000 0.0000 -1.0000
vn 0.0000 1.0000 0.0000
vn -1.0000 -0.0000 -0.0000
vn -0.0000 -0.0000 1.0000
vn 0.0000 -1.0000 0.0000
usemtl Material.001
s off
f 1/1/1 5/2/1 6/3/1 2/4/1
usemtl Material.002
f 5/2/2 1/1/2 4/5/2 8/6/2
usemtl Material.003
f 5/2/3 8/6/3 7/7/3 6/3/3
usemtl Material.004
f 3/8/4 7/7/4 8/6/4 4/5/4
usemtl Material.007
f 2/4/5 6/3/5 7/7/5 3/8/5
usemtl Material.008
f 1/1/6 2/9/6 3/10/6 4/11/6
